# xmcd
#
# Track frame offsets: 
#        150
#        18248
#        39584
#        56137
#        74257
#        94648
#        113687
#        128646
#        143310
#        161398
#        186972
#        203066
#        221286
#        232670
#        251347
#        261506
#        283605
#        297870
#        317299
#
# Disc length: 4487 seconds
#
# Revision: 0
# Processed by: cddbd v1.5.2PL0 Copyright (c) Steve Scherf et al.
# Submitted via: ExactAudioCopyFreeDBPlugin 1.0
#
DISCID=fe118513
DTITLE=Pino Daniele - Pino Danele Quando
DYEAR=2017
DGENRE=Fusion
TTITLE0=Schizzechea
TTITLE1=Cry
TTITLE2=Gesù Gesù
TTITLE3=Anna verrà
TTITLE4=Sambaccussì
TTITLE5=Faccia gialla
TTITLE6=Invece no
TTITLE7=Che soddisfazione
TTITLE8=Femmena
TTITLE9='O Scaraffone
TTITLE10=Quando
TTITLE11=Voglio di più
TTITLE12=Cammina cammina
TTITLE13=Sotto 'o sole
TTITLE14=Viento
TTITLE15=Sono un cantante di blues
TTITLE16=Allora sì
TTITLE17=Sicily
TTITLE18=Che Dio ti benedica
EXTD=
EXTT0=
EXTT1=
EXTT2=
EXTT3=
EXTT4=
EXTT5=
EXTT6=
EXTT7=
EXTT8=
EXTT9=
EXTT10=
EXTT11=
EXTT12=
EXTT13=
EXTT14=
EXTT15=
EXTT16=
EXTT17=
EXTT18=
PLAYORDER=
